<svg width="201" height="148" viewBox="0 0 201 148" fill="none" xmlns="http://www.w3.org/2000/svg">
<path d="M150.105 49.1292L200.14 49.1292C200.14 76.7627 177.739 99.2927 150.105 99.2927V49.1292Z" fill="#EDA747"/>
<rect y="50.1636" width="50.035" height="50.1636" fill="#DF835B"/>
<rect x="12.3799" y="63.0923" width="25.2754" height="25.3404" fill="#93453F"/>
<path d="M50.0352 0C77.6687 0 100.07 22.53 100.07 50.1636L50.0352 50.1636L50.0352 0Z" fill="#DF835B"/>
<path d="M50.0352 50.1636L100.07 50.1636V100.327C72.4366 100.327 50.0352 77.7971 50.0352 50.1636Z" fill="#EDA747"/>
<rect x="100.07" width="50.035" height="50.1636" fill="#EDA747"/>
<path d="M100.07 50.1636L125.023 50.1636C138.876 50.1636 150.105 61.3931 150.105 75.2454C150.105 89.0976 138.876 100.327 125.023 100.327H100.07L100.07 50.1636Z" fill="#93453F"/>
<path d="M150.105 0C177.739 0 200.14 22.53 200.14 50.1636L150.105 50.1636V0Z" fill="#93453F"/>
<path d="M0 100.327C27.6335 100.327 50.035 122.857 50.035 150.491C22.4014 150.491 0 127.961 0 100.327Z" fill="#EDA747"/>
<path d="M50.0352 150.491C50.0352 122.857 72.4366 100.327 100.07 100.327V150.491H50.0352Z" fill="#DF835B"/>
<rect x="100.07" y="100.327" width="50.035" height="50.1636" rx="25.0175" fill="#EDA747"/>
<path fill-rule="evenodd" clip-rule="evenodd" d="M150.106 80.1575C150.179 80.158 150.253 80.1583 150.326 80.1583C166.707 80.1583 179.986 66.8029 179.986 50.4222C179.986 34.0415 166.707 20.686 150.326 20.686C150.252 20.686 150.179 20.6863 150.105 20.6868V51.0828H150.106V80.1575Z" fill="#F6E8D8"/>
<path fill-rule="evenodd" clip-rule="evenodd" d="M150.105 20.6868V50.1636H179.985C179.846 33.9011 166.62 20.686 150.326 20.686C150.252 20.686 150.179 20.6863 150.105 20.6868Z" fill="#DF835B"/>
<rect x="111.935" y="112.222" width="26.307" height="26.3747" rx="13.1535" fill="#F6E8D8"/>
<rect width="50.035" height="50.1636" rx="25.0175" fill="#F6E8D8"/>
<rect x="11.8643" y="11.8945" width="26.307" height="26.3747" rx="13.1535" fill="#DF835B"/>
<path d="M150.105 100.327C177.738 100.327 200.14 122.857 200.14 150.491C172.506 150.491 150.105 127.961 150.105 100.327Z" fill="#93453F"/>
</svg>
