<svg width="119" height="196" viewBox="0 0 119 196" fill="none" xmlns="http://www.w3.org/2000/svg">
<path d="M18.7812 189.617C15.9652 189.617 13.5172 189.057 11.4372 187.937C9.35719 186.785 7.74119 185.233 6.58919 183.281C5.43719 181.297 4.86119 179.041 4.86119 176.513C4.86119 174.561 5.18119 172.769 5.82119 171.137C6.46119 169.505 7.35719 168.097 8.50919 166.913C9.66119 165.697 11.0212 164.769 12.5892 164.129C14.1892 163.457 15.9332 163.121 17.8212 163.121C19.6132 163.121 21.2452 163.441 22.7172 164.081C24.2212 164.721 25.5172 165.617 26.6052 166.769C27.6932 167.921 28.5252 169.281 29.1012 170.849C29.6772 172.417 29.9332 174.129 29.8692 175.985L29.8212 178.049H9.51719L8.41319 173.729H23.5812L22.7652 174.641V173.681C22.7012 172.881 22.4452 172.177 21.9972 171.569C21.5812 170.929 21.0212 170.433 20.3172 170.081C19.6132 169.729 18.8132 169.553 17.9172 169.553C16.6692 169.553 15.5972 169.809 14.7012 170.321C13.8372 170.801 13.1812 171.521 12.7332 172.481C12.2852 173.409 12.0612 174.561 12.0612 175.937C12.0612 177.345 12.3492 178.577 12.9252 179.633C13.5332 180.657 14.3972 181.457 15.5172 182.033C16.6692 182.609 18.0292 182.897 19.5972 182.897C20.6852 182.897 21.6452 182.737 22.4772 182.417C23.3412 182.097 24.2692 181.553 25.2612 180.785L28.8612 185.873C27.8692 186.737 26.8132 187.441 25.6932 187.985C24.5732 188.529 23.4212 188.929 22.2372 189.185C21.0852 189.473 19.9332 189.617 18.7812 189.617ZM49.9096 189.137L44.4856 180.929L41.9896 177.425L31.9096 163.649H41.1256L46.3576 171.473L49.0936 175.217L59.0296 189.137H49.9096ZM31.6696 189.137L41.9416 174.833L46.0696 179.777L40.7416 189.137H31.6696ZM48.5176 178.049L44.4376 173.153L49.4776 163.649H58.5496L48.5176 178.049ZM61.9069 189.137V184.721L75.4429 167.345V169.889H61.9069V163.649H83.0269V168.257L70.2109 185.105L70.0189 182.897H83.4589V189.137H61.9069ZM100.429 189.617C97.7728 189.617 95.4048 189.041 93.3248 187.889C91.2768 186.737 89.6448 185.169 88.4288 183.185C87.2448 181.201 86.6528 178.929 86.6528 176.369C86.6528 173.809 87.2448 171.537 88.4288 169.553C89.6448 167.569 91.2768 166.001 93.3248 164.849C95.4048 163.697 97.7728 163.121 100.429 163.121C103.085 163.121 105.437 163.697 107.485 164.849C109.565 166.001 111.197 167.569 112.381 169.553C113.565 171.537 114.157 173.809 114.157 176.369C114.157 178.929 113.565 181.201 112.381 183.185C111.197 185.169 109.565 186.737 107.485 187.889C105.437 189.041 103.085 189.617 100.429 189.617ZM100.429 182.993C101.581 182.993 102.605 182.705 103.501 182.129C104.397 181.553 105.101 180.769 105.613 179.777C106.125 178.785 106.365 177.649 106.333 176.369C106.365 175.089 106.125 173.953 105.613 172.961C105.101 171.937 104.397 171.137 103.501 170.561C102.605 169.985 101.581 169.697 100.429 169.697C99.2768 169.697 98.2368 169.985 97.3088 170.561C96.4128 171.137 95.7088 171.937 95.1968 172.961C94.6848 173.953 94.4448 175.089 94.4768 176.369C94.4448 177.649 94.6848 178.785 95.1968 179.777C95.7088 180.769 96.4128 181.553 97.3088 182.129C98.2368 182.705 99.2768 182.993 100.429 182.993Z" fill="#DF835B"/>
<path d="M108.505 146.206L59.6576 146.206L59.6576 97.3583V97.3583C86.6352 97.3583 108.505 119.228 108.505 146.206V146.206Z" fill="#EDA747"/>
<path d="M59.6575 48.5718L84.0811 48.5718C97.5699 48.5718 108.505 59.5066 108.505 72.9954V72.9954C108.505 86.4842 97.5699 97.4191 84.0811 97.4191L59.6575 97.4191L59.6575 48.5718Z" fill="#DF835B"/>
<path d="M108.308 0.026741C108.308 27.0044 86.4384 48.874 59.4608 48.874V48.874L59.4608 0.0267453L108.308 0.026741V0.026741Z" fill="#93453F"/>
<path d="M59.7178 146.246V146.246C32.7402 146.246 10.8705 124.376 10.8705 97.3983V97.3983L59.7178 97.3983L59.7178 146.246Z" fill="#F6E8D8"/>
<path d="M59.501 48.8472L10.6537 48.8472V48.8472C10.6537 21.8696 32.5234 -0.000112082 59.501 -0.000114441V-0.000114441L59.501 48.8472Z" fill="#EDA747"/>
<path d="M59.7176 146.206C32.74 146.206 10.8704 124.336 10.8704 97.3583V97.3583V97.3583C37.848 97.3583 59.7176 119.228 59.7176 146.206V146.206V146.206Z" fill="#DF835B"/>
<rect x="59.7178" y="97.4185" width="48.8473" height="48.8473" transform="rotate(180 59.7178 97.4185)" fill="#93453F"/>
<rect x="47.6309" y="85.3325" width="24.6754" height="24.6754" transform="rotate(180 47.6309 85.3325)" fill="#F6E8D8"/>
</svg>
