<svg width="201" height="138" viewBox="0 0 201 138" fill="none" xmlns="http://www.w3.org/2000/svg">
<path d="M150.105 -14.8708L200.14 -14.8708C200.14 12.7627 177.739 35.2927 150.105 35.2927V-14.8708Z" fill="#EDA747"/>
<rect y="-13.8364" width="50.035" height="50.1636" fill="#DF835B"/>
<rect x="12.3799" y="-0.907715" width="25.2754" height="25.3404" fill="#93453F"/>
<path d="M50.0352 -13.8364L100.07 -13.8364V36.3271C72.4366 36.3271 50.0352 13.7971 50.0352 -13.8364Z" fill="#EDA747"/>
<path d="M100.07 -13.8364L125.023 -13.8364C138.876 -13.8364 150.105 -2.60693 150.105 11.2454C150.105 25.0976 138.876 36.3271 125.023 36.3271L100.07 36.3271L100.07 -13.8364Z" fill="#93453F"/>
<path d="M0 36.3271C27.6335 36.3271 50.035 58.8572 50.035 86.4907C22.4014 86.4907 0 63.9607 0 36.3271Z" fill="#EDA747"/>
<path d="M0 86.4907L50.035 86.4907L50.035 136.654C22.4014 136.654 0 114.124 0 86.4907Z" fill="#F6E8D8"/>
<path d="M50.0352 86.4907C50.0352 58.8572 72.4366 36.3271 100.07 36.3271V86.4907H50.0352Z" fill="#DF835B"/>
<path d="M100.07 136.654C72.4366 136.654 50.0352 114.124 50.0352 86.4907C77.6687 86.4907 100.07 109.021 100.07 136.654Z" fill="#93453F"/>
<rect x="100.07" y="36.3271" width="50.035" height="50.1636" rx="25.0175" fill="#EDA747"/>
<path fill-rule="evenodd" clip-rule="evenodd" d="M150.106 16.1575C150.179 16.158 150.253 16.1583 150.326 16.1583C166.707 16.1583 179.986 2.80288 179.986 -13.5778C179.986 -29.9585 166.707 -43.314 150.326 -43.314C150.252 -43.314 150.179 -43.3137 150.105 -43.3132V-12.9172H150.106V16.1575Z" fill="#F6E8D8"/>
<rect x="111.935" y="48.2217" width="26.307" height="26.3747" rx="13.1535" fill="#F6E8D8"/>
<path d="M150.105 87.5251L200.14 87.5251C200.14 115.159 177.739 137.689 150.105 137.689V87.5251Z" fill="#DF835B"/>
<path d="M150.105 36.3271C177.738 36.3271 200.14 58.8572 200.14 86.4907C172.506 86.4907 150.105 63.9607 150.105 36.3271Z" fill="#93453F"/>
<rect x="100.07" y="87.5251" width="50.035" height="50.1636" fill="#F6E8D8"/>
<rect x="112.449" y="99.9365" width="25.2754" height="25.3404" fill="#DF835B"/>
</svg>
